<svg width="24" height="24" viewBox="0 0 24 24" fill="none" xmlns="http://www.w3.org/2000/svg">
<path fill-rule="evenodd" clip-rule="evenodd" d="M11.0189 1.05637C8.81555 1.31334 7.26199 2.62785 6.70496 4.70678C6.58103 5.16915 6.5357 5.58882 6.52962 6.32983C6.52235 7.22602 6.54369 7.39088 6.73686 7.92592L6.95233 8.52269L6.77452 8.71194C6.62261 8.87361 6.5967 8.99066 6.5967 9.51443C6.5967 10.2746 6.83176 10.8303 7.23473 11.0224C7.43789 11.1193 7.5204 11.2328 7.62266 11.5559C7.80351 12.1273 8.27171 12.8895 8.77214 13.4272L9.19517 13.8818V14.827C9.19517 15.8732 9.13233 16.0808 8.70762 16.4382C8.28755 16.7917 7.88003 16.9614 5.89703 17.609C3.75773 18.3076 3.18999 18.5872 2.40221 19.3304C1.53576 20.1478 1.08931 21.1691 1.02535 22.4803L1 23H11.9935H22.987L22.9625 22.4803C22.9052 21.2692 22.4915 20.2628 21.7209 19.4604C20.9094 18.6153 20.1429 18.2332 17.8163 17.5142C15.9113 16.9255 15.2807 16.605 14.9453 16.0548C14.8173 15.8449 14.7924 15.6483 14.7922 14.843L14.7919 13.8818L15.2149 13.4272C15.7153 12.8895 16.1835 12.1273 16.3644 11.5559C16.4666 11.2328 16.5492 11.1193 16.7523 11.0224C17.1553 10.8303 17.3903 10.2746 17.3903 9.51443C17.3903 8.99577 17.3636 8.87249 17.2169 8.7149L17.0434 8.52853L17.2527 7.92888C17.4313 7.41694 17.4619 7.19484 17.4622 6.40978C17.4625 5.90408 17.4156 5.27445 17.358 5.0106C17.2108 4.33468 16.7882 3.46631 16.4291 3.10181C16.0836 2.75089 15.4245 2.41405 15.0814 2.41293C14.9072 2.41229 14.7477 2.30444 14.4265 1.97015C13.629 1.14008 12.6204 0.869603 11.0189 1.05637Z" fill="white"/>
</svg>
