<svg width="24" height="24" viewBox="0 0 24 24" fill="none" xmlns="http://www.w3.org/2000/svg">
<path fill-rule="evenodd" clip-rule="evenodd" d="M4.84281 2.1022C4.53274 2.23449 4.37037 2.47988 4.37037 2.81625C4.37037 3.29246 4.68207 3.66774 5.07756 3.66774C5.16637 3.66774 5.18519 3.8401 5.18519 4.65565C5.18519 5.56878 5.17541 5.63942 5.05556 5.58925C4.77148 5.47033 4.17548 5.33761 3.92533 5.33761C3.50289 5.33761 2.81059 5.54235 2.38052 5.79443C1.87533 6.09065 1.5243 6.48336 1.23156 7.08008C1.02215 7.50692 1 7.61807 1 8.24326C1 8.8839 1.01859 8.97161 1.2543 9.4412C1.58681 10.1038 2.44881 10.9505 3.4623 11.6101C4.35844 12.1933 6.01733 13.0103 7.39148 13.5451C8.37474 13.9277 8.37585 13.9284 8.75622 14.4065C8.96556 14.6696 9.38756 15.1708 9.69393 15.5202L10.251 16.1555H12H13.749L14.3061 15.5202C14.6124 15.1708 15.0323 14.6723 15.239 14.4124C15.613 13.9424 15.62 13.9379 16.6038 13.5508C19.889 12.2581 22.0616 10.8044 22.7457 9.4412C22.9814 8.97161 23 8.8839 23 8.24326C23 7.61807 22.9779 7.50692 22.7684 7.08008C22.4757 6.48336 22.1247 6.09065 21.6195 5.79443C21.1894 5.54235 20.4971 5.33761 20.0747 5.33761C19.8245 5.33761 19.2285 5.47033 18.9444 5.58925C18.8246 5.63942 18.8148 5.56878 18.8148 4.65565C18.8148 3.81186 18.8316 3.66774 18.9296 3.66774C19.1376 3.66774 19.4511 3.46409 19.5411 3.27046C19.6664 3.0011 19.6508 2.5681 19.5088 2.36938C19.2367 1.98851 19.423 1.99765 11.9839 2.0007C6.32904 2.00303 5.03207 2.02147 4.84281 2.1022ZM4.6117 7.26791C4.90541 7.45573 5.28356 7.91327 5.44659 8.27803C5.50015 8.39783 5.6477 8.81544 5.77452 9.20612C5.90141 9.59679 6.16756 10.2564 6.366 10.672C6.7877 11.5548 6.82881 11.5412 5.62963 10.9146C4.0583 10.0934 2.92511 9.16393 2.73437 8.53984C2.61489 8.14909 2.704 7.77039 2.98593 7.47054C3.43704 6.99078 4.05756 6.91346 4.6117 7.26791ZM20.6738 7.19262C21.1802 7.44927 21.4253 8.01775 21.261 8.55501C21.144 8.93785 20.3156 9.76167 19.5771 10.2297C19.0575 10.5591 17.407 11.4363 17.307 11.4363C17.2796 11.4363 17.3532 11.2484 17.4707 11.0188C17.7632 10.4468 18.2115 9.33085 18.3781 8.75975C18.6102 7.96417 19.1954 7.24961 19.7544 7.07907C20.001 7.00385 20.3981 7.05286 20.6738 7.19262ZM9.03659 17.8915C8.55311 18.0399 8.14059 18.3638 7.91881 18.7692C7.86415 18.869 7.80178 19.2591 7.78015 19.636L7.74074 20.3215L7.51444 20.3786C7.17956 20.4633 6.95185 20.7405 6.90867 21.116C6.87504 21.4085 6.8963 21.4655 7.13378 21.7195L7.39607 22H12H16.604L16.8662 21.7195C17.1037 21.4655 17.125 21.4085 17.0913 21.116C17.0481 20.7405 16.8204 20.4633 16.4856 20.3786L16.2593 20.3215L16.2194 19.636C16.1765 18.8991 16.0813 18.6444 15.7288 18.3237C15.2125 17.8539 15.2815 17.8629 12.1111 17.8481C10.5222 17.8407 9.13867 17.8602 9.03659 17.8915Z" fill="white"/>
</svg>
