<svg width="24" height="24" viewBox="0 0 24 24" fill="none" xmlns="http://www.w3.org/2000/svg">
<path fill-rule="evenodd" clip-rule="evenodd" d="M14.9575 1.11089C14.771 1.21257 12.319 3.60662 12.319 3.68707C12.319 3.70573 12.4677 3.87201 12.6495 4.05664C13.0317 4.44482 13.0894 4.7147 12.8343 4.92185C12.6039 5.10891 12.4635 5.06503 12.0618 4.68083C11.8552 4.48318 11.6578 4.33166 11.623 4.34404C11.5883 4.35642 9.22238 6.70403 6.3654 9.56086C3.19333 12.7328 1.13699 14.8363 1.08403 14.9635C0.980534 15.212 0.971067 15.6746 1.06439 15.9256C1.1455 16.1437 2.69332 17.7275 2.90926 17.8133C3.0354 17.8634 3.13633 17.8294 3.48494 17.6194C4.00082 17.3086 4.40917 17.1999 4.87841 17.2485C5.86149 17.3502 6.61147 18.132 6.67531 19.1213C6.711 19.6751 6.62535 20.0085 6.33706 20.4382C5.98123 20.9685 5.99223 20.9945 6.99392 21.9898C7.59058 22.5827 7.93516 22.8777 8.06532 22.907C8.17087 22.9308 8.30494 22.963 8.36321 22.9788C8.42148 22.9944 8.60858 22.9733 8.77898 22.9317C9.06848 22.861 9.22718 22.718 11.2064 20.7435L13.3239 18.6309L13.403 19.0365C13.5906 19.9983 14.0491 20.8546 14.7649 21.5799C16.3335 23.1694 18.7028 23.4526 20.6842 22.2875C21.1547 22.0108 22.0123 21.1506 22.2882 20.6788C22.7584 19.8744 22.9981 19.0306 23 18.1724C23.0029 16.8693 22.4986 15.6518 21.577 14.7362C20.8615 14.0255 20.202 13.6567 19.2297 13.4238L18.6524 13.2855L19.1437 12.7898L19.6351 12.2941L19.2712 11.9115C18.8651 11.4845 18.8286 11.3359 19.0704 11.0934C19.2936 10.8696 19.4921 10.9289 19.9155 11.3457L20.2522 11.6769L21.5372 10.3953C22.2439 9.69045 22.8624 9.02084 22.9116 8.90729C23.0176 8.66262 23.0276 8.26322 22.9339 8.0113C22.8525 7.79222 21.3045 6.20923 21.0874 6.12301C20.9605 6.07259 20.8687 6.10081 20.5757 6.28024C20.0748 6.58695 19.8002 6.66117 19.2698 6.63327C18.271 6.5806 17.4841 5.84992 17.3389 4.84044C17.2837 4.45669 17.4431 3.8255 17.6942 3.4329C18.0003 2.95453 17.9854 2.92162 17.0352 1.97789C16.5683 1.51433 16.1059 1.10435 16.0076 1.06682C15.7312 0.961417 15.19 0.984126 14.9575 1.11089ZM14.4024 5.82599C14.8896 6.30674 14.9596 6.50336 14.7267 6.73693C14.4765 6.98783 14.336 6.94568 13.8479 6.47302C13.3732 6.01331 13.2915 5.78699 13.5122 5.54238C13.7185 5.31374 13.9618 5.39124 14.4024 5.82599ZM16.3063 7.72826C16.775 8.21517 16.8192 8.35899 16.5755 8.60341C16.3225 8.85725 16.181 8.80792 15.6579 8.2833C15.2314 7.85554 15.1863 7.78696 15.225 7.62575C15.2807 7.39468 15.4263 7.28543 15.6788 7.28543C15.8438 7.28543 15.9567 7.3651 16.3063 7.72826ZM18.122 9.54489C18.4522 9.87309 18.5235 9.98137 18.5235 10.1543C18.5235 10.396 18.3354 10.6213 18.1336 10.6213C17.9861 10.6213 17.1429 9.84422 17.0822 9.65228C17.0437 9.53078 17.1481 9.27642 17.2698 9.19488C17.3085 9.16896 17.4258 9.14735 17.5304 9.14677C17.6786 9.146 17.8093 9.23395 18.122 9.54489ZM19.1338 14.3105C22.0883 15.0605 23.0968 18.7641 20.9397 20.9426C19.3447 22.5536 16.6709 22.4626 15.174 20.7463C14.8284 20.3502 14.4683 19.6541 14.3344 19.1239C14.2082 18.6238 14.2106 17.6421 14.3393 17.1418C14.6711 15.8521 15.7901 14.7073 17.0843 14.3337C17.578 14.1912 18.6173 14.1794 19.1338 14.3105Z" fill="white"/>
<path d="M16.7364 18.5632C15.683 18.56 15.5579 18.5141 15.5573 18.1311C15.5567 17.7471 15.6828 17.7009 16.736 17.6999L17.7071 17.699L17.7129 16.7231C17.719 15.6811 17.769 15.5361 18.1349 15.4981C18.2593 15.4853 18.3704 15.5276 18.4677 15.625C18.5925 15.7497 18.6143 15.9073 18.6168 16.7031C18.6193 17.5005 18.6388 17.6407 18.7515 17.6738C18.8239 17.6951 19.2475 17.7074 19.6928 17.7011C20.3724 17.6916 20.5251 17.7125 20.6441 17.8314C20.83 18.0174 20.8367 18.2539 20.6611 18.4295C20.5429 18.5477 20.3749 18.5699 19.616 18.5673C19.1187 18.5657 18.6907 18.5854 18.6649 18.6113C18.639 18.6371 18.6193 19.0651 18.621 19.5624C18.6235 20.3352 18.6027 20.4879 18.4779 20.6127C18.3859 20.7047 18.261 20.7561 18.1403 20.7517C17.778 20.7384 17.7262 20.5906 17.717 19.5437L17.7083 18.5661L16.7364 18.5632Z" fill="white"/>
</svg>
