<svg width="24" height="24" viewBox="0 0 24 24" fill="none" xmlns="http://www.w3.org/2000/svg">
<path d="M2 11H22V19C22 20.6569 20.6569 22 19 22H5C3.34315 22 2 20.6569 2 19V11Z" fill="#ABAFE5"/>
<rect x="6" y="2" width="2" height="5" rx="1" fill="#ABAFE5"/>
<rect x="16" y="2" width="2" height="5" rx="1" fill="#ABAFE5"/>
<path fill-rule="evenodd" clip-rule="evenodd" d="M15 4H9V6C9 7.10457 8.10457 8 7 8C5.89543 8 5 7.10457 5 6V4C3.34315 4 2 5.34315 2 7V9H22V7C22 5.34315 20.6569 4 19 4V6C19 7.10457 18.1046 8 17 8C15.8954 8 15 7.10457 15 6V4Z" fill="#ABAFE5"/>
</svg>
