<svg width="32" height="32" viewBox="0 0 32 32" fill="none" xmlns="http://www.w3.org/2000/svg">
<path d="M20.4222 18.9078L16.9365 16.2936V10.9683C16.9365 10.4328 16.5037 10 15.9683 10C15.4328 10 15 10.4328 15 10.9683V16.7777C15 17.0827 15.1433 17.3703 15.3873 17.5523L19.2603 20.4571C19.4345 20.5878 19.6379 20.6507 19.8402 20.6507C20.1355 20.6507 20.426 20.5181 20.6158 20.2625C20.9374 19.8354 20.8502 19.2283 20.4222 18.9078Z" fill="#30A5D1"/>
<path d="M16 4C9.3828 4 4 9.3828 4 16C4 22.6172 9.3828 28 16 28C22.6172 28 28 22.6172 28 16C28 9.3828 22.6172 4 16 4ZM16 26.141C10.409 26.141 5.85902 21.591 5.85902 16C5.85902 10.409 10.409 5.85902 16 5.85902C21.592 5.85902 26.141 10.409 26.141 16C26.141 21.591 21.591 26.141 16 26.141Z" fill="#30A5D1"/>
</svg>
