<svg width="24" height="24" viewBox="0 0 24 24" fill="none" xmlns="http://www.w3.org/2000/svg">
<path fill-rule="evenodd" clip-rule="evenodd" d="M9 4H15V6C15 7.10457 15.8954 8 17 8C18.1046 8 19 7.10457 19 6V4C20.6569 4 22 5.34315 22 7V19C22 20.6569 20.6569 22 19 22H5C3.34315 22 2 20.6569 2 19V7C2 5.34315 3.34315 4 5 4V6C5 7.10457 5.89543 8 7 8C8.10457 8 9 7.10457 9 6V4ZM15.5308 9.63223C15.487 9.41528 15.1521 8.72677 14.8834 8.3016C14.775 8.12997 14.6724 7.99432 14.6553 8.00018C14.602 8.01845 14.2039 8.69171 14.0124 9.08725C13.8139 9.49741 13.7486 9.73655 13.7831 9.92629C13.9191 10.6728 14.7989 10.9605 15.2911 10.4194C15.4599 10.2338 15.4903 10.1776 15.5333 9.97154C15.5579 9.85346 15.5572 9.76316 15.5308 9.63223ZM12.8655 9.63223C12.8217 9.41528 12.4867 8.72677 12.2181 8.3016C12.1097 8.12997 12.007 7.99432 11.99 8.00018C11.9367 8.01845 11.5385 8.69171 11.3471 9.08725C11.1486 9.49741 11.0833 9.73655 11.1178 9.92629C11.2537 10.6728 12.1336 10.9605 12.6258 10.4194C12.7946 10.2338 12.825 10.1776 12.868 9.97154C12.8926 9.85346 12.8919 9.76316 12.8655 9.63223ZM10.2002 9.63223C10.1564 9.41528 9.82141 8.72677 9.5528 8.3016C9.44436 8.12997 9.34171 7.99432 9.32467 8.00018C9.27136 8.01845 8.8732 8.69171 8.6818 9.08725C8.48329 9.49741 8.41793 9.73655 8.45245 9.92629C8.58842 10.6728 9.46828 10.9605 9.96047 10.4194C10.1293 10.2338 10.1597 10.1776 10.2026 9.97154C10.2273 9.85346 10.2266 9.76316 10.2002 9.63223ZM15.0268 11.3673C14.9882 11.3078 14.908 11.2332 14.8486 11.2016C14.6529 11.0973 14.4122 11.1743 14.29 11.3803C14.2417 11.4618 14.2296 11.541 14.2295 11.7769L14.2294 12.0718H13.3306H12.4319V11.7737C12.4319 11.5169 12.4221 11.4606 12.3615 11.3673C12.1756 11.0811 11.7981 11.0877 11.6247 11.3803C11.5764 11.4618 11.5643 11.541 11.5642 11.7769L11.5641 12.0718H10.6653H9.76655V11.7737C9.76655 11.5169 9.75682 11.4606 9.6962 11.3673C9.51028 11.0811 9.13282 11.0877 8.95939 11.3803C8.90996 11.4637 8.89899 11.5413 8.8989 11.8083L8.89877 12.1344L8.73864 12.2179C8.52851 12.3274 8.27952 12.5725 8.17194 12.7758C8.03223 13.0398 8.00077 13.2197 8.00037 13.7567L8 14.2463L8.15685 14.4326C8.37299 14.6891 8.5802 14.7915 8.88328 14.7915C9.26941 14.7915 9.37193 14.7195 9.94686 14.0443C10.2139 13.7307 10.4395 13.475 10.4481 13.4761C10.4568 13.4772 10.6382 13.6864 10.8513 13.941C11.4896 14.7036 11.6248 14.8016 12.029 14.7934C12.3945 14.786 12.5327 14.676 13.2377 13.8313C13.3996 13.6372 13.5415 13.4811 13.5531 13.4843C13.5646 13.4875 13.7935 13.7465 14.0618 14.06C14.6311 14.7253 14.7263 14.7916 15.1113 14.7914C15.4063 14.7912 15.575 14.7105 15.8127 14.4557L16 14.255L15.9902 13.6813C15.9805 13.1112 15.9799 13.1062 15.8813 12.8922C15.7571 12.6227 15.5231 12.3652 15.2823 12.2332L15.0972 12.1318V11.8037C15.0972 11.5157 15.0886 11.4624 15.0268 11.3673ZM15.0942 15.7113C14.579 15.7096 14.2206 15.5465 13.8265 15.1344L13.5631 14.8589L13.3306 15.1012C12.9189 15.5303 12.526 15.7099 11.998 15.7105C11.4548 15.711 10.9825 15.4834 10.6103 15.0418L10.4468 14.8478L10.1985 15.1138C9.81037 15.5296 9.41969 15.7096 8.90175 15.7113C8.61767 15.7122 8.36369 15.6554 8.14938 15.5429C8.08563 15.5095 8.02594 15.4821 8.01674 15.4821C8.00753 15.4821 8 15.9704 8 16.5673C8 17.5108 7.99986 17.7044 8.09355 17.8252C8.11789 17.8566 8.14857 17.8831 8.18722 17.9165L8.28367 18H11.998H15.7123L15.8087 17.9165C15.8474 17.8831 15.8781 17.8566 15.9024 17.8252C15.9961 17.7044 15.996 17.5108 15.996 16.5673C15.996 15.9704 15.9884 15.4821 15.9792 15.4821C15.97 15.4821 15.9103 15.5095 15.8466 15.5429C15.6323 15.6554 15.3783 15.7122 15.0942 15.7113Z" fill="#ABAFE5"/>
<rect x="16" y="2" width="2" height="5" rx="1" fill="#ABAFE5"/>
<rect x="6" y="2" width="2" height="5" rx="1" fill="#ABAFE5"/>
</svg>
