<svg width="32" height="32" viewBox="0 0 32 32" fill="none" xmlns="http://www.w3.org/2000/svg">
<path d="M30.8954 19.2597C30.8209 17.5871 30.5229 15.7327 30.0758 13.9875C29.6287 12.3149 29.0699 10.7515 28.3993 9.55158C25.7914 5.07933 22.9599 5.77016 19.5696 6.6428C18.4892 6.89732 17.3342 7.1882 16.142 7.29727H15.7695C14.5773 7.1882 13.4224 6.89732 12.3419 6.6428C8.95162 5.80652 6.12016 5.07933 3.51223 9.58794C2.84162 10.7878 2.24553 12.3513 1.83571 14.0238C1.38864 15.7691 1.09059 17.6235 1.01608 19.296C0.941565 21.1504 1.12785 22.4957 1.53766 23.441C1.94748 24.3137 2.54358 24.8591 3.32595 25.0772C4.03382 25.259 4.85345 25.1863 5.71034 24.8227C7.16333 24.2409 8.83985 23.0047 10.4791 21.514C11.6341 20.4232 13.7949 19.8778 15.9558 19.8778C18.1166 19.8778 20.2775 20.4232 21.4324 21.514C23.0717 23.0047 24.7482 24.2409 26.2012 24.8227C27.0581 25.1499 27.8777 25.259 28.5856 25.0772C29.3307 24.8591 29.964 24.35 30.3739 23.4047C30.7837 22.4957 30.97 21.1504 30.8954 19.2597ZM29.1072 22.8956C28.8836 23.4047 28.5856 23.6955 28.213 23.8046C27.8032 23.9137 27.2816 23.841 26.6855 23.6228C25.3816 23.1138 23.8541 21.9866 22.3638 20.605C20.9481 19.2233 18.4519 18.5325 15.9558 18.5325C13.4596 18.5325 10.9634 19.2233 9.51046 20.5322C7.98296 21.9139 6.45546 23.0774 5.18876 23.5501C4.59266 23.7683 4.07108 23.8773 3.66126 23.7319C3.2887 23.6228 2.99065 23.3319 2.76711 22.8229C2.46906 22.1321 2.32004 21.0049 2.39455 19.3324C2.46906 17.7689 2.72986 15.9873 3.17693 14.3147C3.58675 12.7512 4.10833 11.2969 4.74169 10.2061C6.79077 6.60644 9.17516 7.1882 12.0066 7.91539C13.1616 8.20627 14.3538 8.49715 15.6577 8.60623C15.695 8.60623 15.695 8.60623 15.7322 8.60623H16.142C16.1793 8.60623 16.1793 8.60623 16.2166 8.60623C17.5578 8.49715 18.75 8.20627 19.9049 7.91539C22.7364 7.22456 25.1208 6.60644 27.1698 10.2061C27.8032 11.2969 28.3248 12.7149 28.7346 14.3147C29.1444 15.9873 29.4425 17.7325 29.517 19.3324C29.5915 21.0049 29.4425 22.1321 29.1072 22.8956Z" fill="#30A5D1"/>
<path d="M12.5283 12.1695C12.1557 11.8422 11.7086 11.5877 11.1871 11.5513C11.1498 11.0787 10.9263 10.606 10.591 10.2787L10.5537 10.2424C10.1439 9.84243 9.6223 9.62427 9.0262 9.62427C8.43011 9.62427 7.87127 9.87879 7.4987 10.2424C7.1634 10.5696 6.90261 11.0423 6.86535 11.5513C6.34377 11.5877 5.89669 11.8059 5.52413 12.1331L5.48688 12.1695C5.07706 12.5694 4.85352 13.0784 4.85352 13.6602C4.85352 14.242 5.11432 14.7874 5.48688 15.151C5.85944 15.5146 6.30651 15.7327 6.86535 15.7691C6.90261 16.2781 7.12614 16.7508 7.4987 17.078C7.90852 17.478 8.43011 17.6961 9.0262 17.6961C9.6223 17.6961 10.1811 17.4416 10.5537 17.078C10.889 16.7144 11.1498 16.2781 11.1871 15.7691C11.7086 15.7327 12.193 15.5146 12.5283 15.151C12.9381 14.751 13.1616 14.242 13.1616 13.6602C13.1616 13.0784 12.9008 12.5331 12.5283 12.1695ZM11.5969 14.2056C11.4478 14.351 11.2616 14.4238 11.038 14.4238H10.5164C10.1439 14.4238 9.80858 14.7146 9.80858 15.1146V15.5873C9.80858 15.8054 9.73407 15.9872 9.58504 16.1327C9.43602 16.2781 9.24974 16.3508 9.0262 16.3508C8.80267 16.3508 8.61639 16.2781 8.46736 16.1327C8.31834 15.9872 8.24383 15.8054 8.24383 15.5873V15.0782C8.24383 14.7146 7.94578 14.3874 7.53596 14.3874H7.01438C6.79084 14.3874 6.60456 14.3147 6.45553 14.1692C6.34377 14.0602 6.232 13.8784 6.232 13.6602C6.232 13.442 6.30651 13.2602 6.45553 13.1148C6.45553 13.1148 6.45553 13.1148 6.49279 13.0784C6.64181 12.9694 6.82809 12.8966 7.01438 12.8966H7.53596C7.90852 12.8966 8.24383 12.6058 8.24383 12.2058V11.6968C8.24383 11.4786 8.31834 11.2968 8.46736 11.1514C8.61639 11.0059 8.80267 10.9332 9.0262 10.9332C9.24974 10.9332 9.43602 11.0059 9.58504 11.1514C9.58504 11.1514 9.58504 11.1514 9.6223 11.1877C9.73407 11.3332 9.80858 11.515 9.80858 11.6968V12.2058C9.80858 12.5694 10.1066 12.8966 10.5164 12.8966H11.038C11.2616 12.8966 11.4478 12.9694 11.5969 13.1148C11.7459 13.2602 11.8204 13.442 11.8204 13.6602C11.8204 13.8784 11.7459 14.0602 11.5969 14.2056Z" fill="#30A5D1"/>
<path d="M22.4385 12.3511C23.1587 12.3511 23.7425 11.7813 23.7425 11.0785C23.7425 10.3757 23.1587 9.80591 22.4385 9.80591C21.7184 9.80591 21.1346 10.3757 21.1346 11.0785C21.1346 11.7813 21.7184 12.3511 22.4385 12.3511Z" fill="#30A5D1"/>
<path d="M22.4385 17.5144C23.1587 17.5144 23.7425 16.9447 23.7425 16.2418C23.7425 15.539 23.1587 14.9692 22.4385 14.9692C21.7184 14.9692 21.1346 15.539 21.1346 16.2418C21.1346 16.9447 21.7184 17.5144 22.4385 17.5144Z" fill="#30A5D1"/>
<path d="M19.7933 14.9326C20.5134 14.9326 21.0972 14.3629 21.0972 13.66C21.0972 12.9572 20.5134 12.3875 19.7933 12.3875C19.0731 12.3875 18.4893 12.9572 18.4893 13.66C18.4893 14.3629 19.0731 14.9326 19.7933 14.9326Z" fill="#30A5D1"/>
<path d="M25.0834 14.9326C25.8035 14.9326 26.3873 14.3629 26.3873 13.66C26.3873 12.9572 25.8035 12.3875 25.0834 12.3875C24.3632 12.3875 23.7794 12.9572 23.7794 13.66C23.7794 14.3629 24.3632 14.9326 25.0834 14.9326Z" fill="#30A5D1"/>
</svg>
