<svg width="24" height="24" viewBox="0 0 24 24" fill="none" xmlns="http://www.w3.org/2000/svg">
<path fill-rule="evenodd" clip-rule="evenodd" d="M6.43864 3.08529C4.81435 3.48683 3.2998 5.56773 2.23054 8.8667C1.09918 12.3571 0.692892 16.3292 1.24335 18.5173C1.63468 20.0729 2.54742 21 3.68757 21C5.02396 21 6.3427 19.9115 8.42899 17.0865C9.04381 16.2539 9.62986 15.4813 9.73132 15.3697L9.91573 15.1666H11.9948H14.0739L14.2583 15.3697C14.3598 15.4813 14.9459 16.2539 15.5607 17.0865C17.2384 19.3582 18.3454 20.4274 19.4651 20.8572C20.3188 21.1848 21.3244 20.924 21.9375 20.216C23.1452 18.8211 23.3357 15.5291 22.4456 11.4377C21.5513 7.32668 19.9835 4.29517 18.2762 3.3757C17.0524 2.71661 15.5365 2.92299 13.629 4.00837C12.6882 4.54364 12.3991 4.63601 11.8123 4.58868C11.3585 4.55206 10.9821 4.38887 9.99983 3.80309C8.89266 3.14274 7.41276 2.84442 6.43864 3.08529ZM16.8946 7.43183C17.4732 7.94613 17.0827 8.88324 16.3288 8.78953C16.0105 8.75003 15.8226 8.60309 15.6974 8.29554C15.5833 8.01547 15.6564 7.74063 15.915 7.47776C16.1841 7.20418 16.6157 7.18395 16.8946 7.43183ZM7.92756 7.87701C8.19353 8.01207 8.36312 8.41369 8.36319 8.90864L8.36334 9.33322L8.70833 9.33366C9.47436 9.33455 9.88856 9.61721 9.88856 10.139C9.88856 10.6689 9.50559 10.9577 8.80275 10.9577H8.36334V11.4044C8.36334 12.119 8.07928 12.5084 7.55802 12.5084C7.04692 12.5084 6.76679 12.087 6.76591 11.3168L6.76548 10.9744L6.25939 10.9453C5.64828 10.9102 5.38224 10.7441 5.28005 10.3338C5.22369 10.1075 5.23713 10.0064 5.35275 9.78697C5.51879 9.47197 5.81323 9.34363 6.38417 9.33736L6.76548 9.33322L6.76591 8.98248C6.76649 8.4241 6.88866 8.08945 7.15122 7.92671C7.41784 7.76145 7.66849 7.74536 7.92756 7.87701ZM14.8098 9.4809C14.8763 9.4809 15.1174 9.98988 15.1176 10.1307C15.1184 10.6015 14.6154 11.0194 14.1681 10.9195C13.863 10.8514 13.5927 10.4899 13.5927 10.1497C13.5927 9.63146 14.0692 9.27622 14.5727 9.41917C14.6923 9.45314 14.799 9.4809 14.8098 9.4809ZM19.0944 9.66831C19.5699 10.2212 18.9781 11.1191 18.2904 10.8882C17.9576 10.7766 17.8001 10.5854 17.759 10.2435C17.6668 9.47706 18.5885 9.0801 19.0944 9.66831ZM16.8401 11.6198C17.4573 12.0023 17.1565 13.0252 16.4268 13.0252C16.097 13.0252 15.7409 12.7622 15.6674 12.4642C15.5947 12.17 15.7558 11.7776 16.0151 11.6168C16.3059 11.4366 16.5459 11.4374 16.8401 11.6198Z" fill="white"/>
</svg>
