<svg width="24" height="24" viewBox="0 0 24 24" fill="none" xmlns="http://www.w3.org/2000/svg">
<path fill-rule="evenodd" clip-rule="evenodd" d="M18.8668 7.08568C18.7082 7.14437 18.4633 7.31853 18.2824 7.5012C17.7533 8.03546 17.7663 7.93028 17.7663 11.6787V14.9352H17.1223C16.409 14.9352 16.1893 15.0056 16.0689 15.2726C15.9728 15.4856 15.9768 15.6448 16.0834 15.8477C16.2171 16.1019 18.994 18.8661 19.1897 18.9396C19.4419 19.0344 19.6347 19.0191 19.898 18.8835C20.1573 18.7499 22.8946 15.9353 22.9727 15.7219C23.0482 15.516 22.9636 15.2614 22.7631 15.091C22.5915 14.9453 22.5369 14.9352 21.9149 14.9352H21.2501L21.2328 11.5907V8.55296L21.0352 7.9174C20.8362 7.55471 20.6257 7.35127 20.2458 7.1546C19.9103 6.98087 19.2404 6.94739 18.8668 7.08568Z" fill="#444656"/>
<rect x="1" y="3" width="15" height="4" rx="2" fill="#444656"/>
<rect x="1" y="10" width="11" height="4" rx="2" fill="#444656"/>
<rect x="1" y="17" width="9" height="4" rx="2" fill="#444656"/>
</svg>
