<svg width="24" height="24" viewBox="0 0 24 24" fill="none" xmlns="http://www.w3.org/2000/svg">
<path d="M12 11C13.6568 11 15 9.20916 15 7.00002C15 4.79084 14.559 3 12 3C9.44108 3 9 4.79084 9 7.00002C9 9.20916 10.3432 11 12 11Z" fill="#ABAFE5"/>
<path d="M4.00079 21.2487C4.00011 21.084 3.99942 21.2023 4.00079 21.2487V21.2487Z" fill="#ABAFE5"/>
<path d="M18.9988 21.3774C19.0009 21.3323 18.9995 21.0646 18.9988 21.3774V21.3774Z" fill="#ABAFE5"/>
<path d="M19.991 18.3039C19.9126 14.0018 19.2662 12.776 14.3195 12C14.3195 12 13.6232 12.7712 12.0002 12.7712C10.3772 12.7712 9.68075 12 9.68075 12C4.78805 12.7675 4.10231 13.9752 4.01214 18.1642C4.00475 18.5062 4.00132 18.5242 4 18.4845C4.0003 18.5589 4.00066 18.6965 4.00066 18.9365C4.00066 18.9365 5.17835 21 12.0002 21C18.8219 21 19.9997 18.9365 19.9997 18.9365C19.9997 18.7823 19.9998 18.6751 20 18.6021C19.9987 18.6267 19.996 18.5791 19.991 18.3039Z" fill="#ABAFE5"/>
</svg>
