<svg width="88" height="24" viewBox="0 0 88 24" fill="none" xmlns="http://www.w3.org/2000/svg">
<path fill-rule="evenodd" clip-rule="evenodd" d="M11.5243 3.69842L10.8111 4.39684L11.9383 5.50229L13.0656 6.60773L12.4478 7.17327C11.2591 8.26133 10.1884 9.68026 9.41034 11.1984L9 11.9991L9.31008 12.6301C9.68993 13.4031 10.2219 14.269 10.7759 15.016C11.3605 15.8043 12.936 17.3296 13.7347 17.8807C14.8823 18.6725 16.2943 19.2854 17.6248 19.5692C19.9838 20.0725 22.3987 19.8157 24.5473 18.8329L25.2303 18.5206L26.4976 19.7603L27.7649 21L28.477 20.3003L29.1891 19.6005L20.7132 11.3003L12.2374 3L11.5243 3.69842ZM19.1302 4.20062C18.5632 4.25796 17.9301 4.36841 17.3346 4.51404L16.7225 4.66369L17.991 5.9072L19.2594 7.15077L19.9606 7.14873C20.7908 7.14627 21.4176 7.27554 22.1112 7.59216C23.1503 8.06648 23.953 8.83976 24.4573 9.85228C24.816 10.5724 24.9573 11.1917 24.9566 12.0407L24.9561 12.7292L26.6593 14.3929L28.3625 16.0565L28.5389 15.852C29.3383 14.9253 30.0496 13.8659 30.6276 12.7411L31 12.0164L30.7657 11.513C30.4485 10.8311 29.7157 9.63663 29.1825 8.93187C28.6481 8.22574 27.1721 6.76359 26.5177 6.29227C25.0955 5.26789 23.5732 4.62347 21.8781 4.32832C21.2831 4.22476 19.645 4.1486 19.1302 4.20062ZM17.1639 11.0454C17.0819 11.2579 17.045 11.5617 17.0438 12.034C17.0421 12.6614 17.0597 12.7525 17.2647 13.1766C17.9383 14.5704 19.5524 15.2639 20.9751 14.7709L21.2884 14.6624L22.0033 15.3595C22.8163 16.1522 22.8143 16.0878 22.0354 16.4408C21.4204 16.7195 20.7711 16.8507 20.0017 16.8518C17.45 16.8554 15.3811 15.0636 15.0658 12.5769C14.9424 11.6029 15.1748 10.4345 15.6499 9.64051L15.8396 9.32355L16.5609 10.0311L17.2822 10.7386L17.1639 11.0454Z" fill="#ABAFE5"/>
<path fill-rule="evenodd" clip-rule="evenodd" d="M67.8459 4.0362C66.1449 4.23305 64.4839 4.82414 63.1209 5.71772C61.1879 6.98476 59.4504 9.00631 58.3515 11.2666L58 11.9896L58.3111 12.6374C58.6919 13.4303 59.2237 14.3161 59.7783 15.0812C60.363 15.8879 61.9389 17.4491 62.7379 18.0131C64.8156 19.48 67.4173 20.187 69.8931 19.9575C72.7865 19.6893 74.9876 18.6048 77.0853 16.4141C78.1536 15.2983 79.1736 13.8114 79.7695 12.5011L80 11.9943L79.7695 11.4875C79.4556 10.7972 78.7207 9.57236 78.1896 8.85427C77.6552 8.13157 76.1787 6.6351 75.5242 6.15272C74.1007 5.1036 72.581 4.44343 70.9037 4.14554C70.1692 4.01506 68.5337 3.95658 67.8459 4.0362ZM70.1891 7.15474C71.1927 7.37685 72.3072 8.09877 72.9413 8.93737C73.6224 9.83807 73.9626 10.8565 73.9626 11.9943C73.9626 13.9366 72.9215 15.6194 71.1988 16.4614C70.4782 16.8136 69.8287 16.9618 69.0052 16.9618C68.1818 16.9618 67.5323 16.8136 66.8116 16.4614C65.7775 15.9559 64.9876 15.1514 64.5032 14.1099C64.1839 13.4236 64.0447 12.781 64.0447 11.9943C64.0447 10.0566 65.0954 8.36128 66.8116 7.52952C67.9187 6.99306 68.9446 6.87919 70.1891 7.15474ZM68.2822 9.06702C67.4761 9.2698 66.6551 9.97233 66.2685 10.79C66.0618 11.2274 66.0456 11.3147 66.0456 11.9943C66.0456 12.6739 66.0618 12.7612 66.2685 13.1986C67.199 15.1668 69.6944 15.6032 71.157 14.0536C72.5884 12.5371 72.1218 10.1526 70.2191 9.26052C69.8405 9.08293 69.6555 9.04141 69.1566 9.02222C68.8244 9.00945 68.4309 9.02962 68.2822 9.06702Z" fill="#ABAFE5"/>
</svg>
