<svg width="24" height="24" viewBox="0 0 24 24" fill="none" xmlns="http://www.w3.org/2000/svg">
<path fill-rule="evenodd" clip-rule="evenodd" d="M9.54334 3.081C7.00627 3.55779 4.84511 5.63038 4.21881 8.18738C3.41 11.4897 4.89553 14.8396 7.81444 16.2953C9.74359 17.2574 11.8116 17.2523 13.7485 16.2806L14.4116 15.9479L16.8512 18.4739L19.2907 21L20.1453 20.1149L21 19.2298L18.5899 16.7331L16.1797 14.2364L16.4379 13.8215C17.5715 12.0001 17.8487 9.77742 17.1948 7.75159C16.4199 5.35041 14.3657 3.51337 11.9724 3.08112C11.3739 2.97301 10.1184 2.97295 9.54334 3.081ZM12.0164 4.79505C13.0616 5.05394 14.1315 5.75931 14.7995 6.62987C15.213 7.16885 15.6161 7.99643 15.7905 8.66459C15.9687 9.34715 15.9692 10.6197 15.7916 11.3057C15.0005 14.3604 11.9943 16.0496 9.1141 15.0578C7.39969 14.4674 6.16662 13.0585 5.71796 11.1775C5.57104 10.5614 5.58698 9.29486 5.74955 8.66459C6.29749 6.54056 7.94583 5.02597 10.093 4.6735C10.561 4.59666 11.44 4.65225 12.0164 4.79505Z" fill="white"/>
</svg>
