<svg width="24" height="24" viewBox="0 0 24 24" fill="none" xmlns="http://www.w3.org/2000/svg">
<path fill-rule="evenodd" clip-rule="evenodd" d="M12.8705 1.04541C13.5341 1.15468 14.0159 1.31971 14.6897 1.66873C15.8842 2.28737 16.8002 3.25773 17.3801 4.51849C17.8411 5.52061 17.9462 5.99741 17.9894 7.28123L18.0258 8.36071H18.2505C18.5831 8.36071 19.2965 8.76322 19.5439 9.09044C20.0283 9.7311 19.9997 9.31665 19.9997 15.6792C19.9997 20.9761 19.9902 21.4461 19.8784 21.7051C19.6656 22.1981 19.3497 22.5424 18.8951 22.7767L18.4623 23L11.9298 22.9805C5.59445 22.9617 5.38897 22.9568 5.12019 22.8172C4.74255 22.621 4.3311 22.1745 4.15015 21.7645C4.00056 21.4255 4 21.4028 4 15.6792C4 9.95563 4.00056 9.93294 4.15015 9.59395C4.43542 8.94765 5.06087 8.45153 5.68304 8.37805L5.97439 8.34365L6.01051 7.27274C6.05348 5.99814 6.15947 5.51885 6.61954 4.51849C7.37181 2.88287 8.84057 1.62058 10.4977 1.18542C11.1505 1.01402 12.2764 0.947566 12.8705 1.04541ZM11.1265 3.20145C9.99674 3.44991 9.00972 4.21989 8.49032 5.25788C8.14105 5.9557 8.01969 6.54228 8.01843 7.53737L8.01739 8.36071H11.9998H15.9823L15.9812 7.53737C15.98 6.54228 15.8586 5.9557 15.5094 5.25788C14.7044 3.64934 12.9127 2.80866 11.1265 3.20145ZM11.1138 13.8227C9.94804 14.3994 9.6525 16.0451 10.5273 17.0888C11.2602 17.9632 12.7395 17.9632 13.4724 17.0888C13.8198 16.6743 13.9684 16.2519 13.9684 15.6792C13.9684 14.1045 12.4891 13.1424 11.1138 13.8227Z" fill="#ABAFE5"/>
</svg>
