<svg width="24" height="24" viewBox="0 0 24 24" fill="none" xmlns="http://www.w3.org/2000/svg">
<path fill-rule="evenodd" clip-rule="evenodd" d="M10.5124 3.08904C9.99072 3.1763 9.71865 3.32217 9.62764 3.56349C9.59413 3.65228 9.51927 4.18156 9.4613 4.73968C9.40332 5.29787 9.32497 5.85427 9.28731 5.97622C9.19721 6.26751 8.85985 6.64886 8.5928 6.76131C8.13764 6.95291 7.78656 6.88472 6.61717 6.37744C5.24425 5.7819 5.2267 5.78389 4.59426 6.60393C4.08779 7.26075 3.88926 7.5749 3.55731 8.24528C3.04246 9.2849 2.92486 9.78966 3.12906 10.0834C3.18189 10.1594 3.62386 10.517 4.11114 10.8779C4.59835 11.2389 5.06373 11.6322 5.14518 11.752C5.43183 12.1735 5.42873 12.8275 5.13819 13.2386C5.06558 13.3414 4.57757 13.7438 4.05369 14.1329C2.93047 14.9671 2.88338 15.0456 3.10591 15.7112C3.37211 16.5074 3.91921 17.5161 4.5004 18.2821C5.18113 19.1793 5.26093 19.1902 6.66169 18.5762C7.20998 18.336 7.75411 18.1238 7.87092 18.1046C8.35826 18.025 8.96775 18.3638 9.19141 18.8387C9.25037 18.9639 9.35326 19.5614 9.42542 20.1972C9.55805 21.3662 9.58991 21.4892 9.81317 21.6928C10.2194 22.0632 13.3709 22.1139 14.0628 21.7612C14.347 21.6163 14.4268 21.3678 14.5415 20.2712C14.6671 19.0709 14.7169 18.8827 14.9932 18.5655C15.2515 18.2692 15.5311 18.1492 15.9632 18.1492C16.2351 18.1492 16.5125 18.2411 17.3966 18.6243C18.4868 19.0969 18.4944 19.099 18.7567 19.0065C19.3857 18.7846 20.9726 16.1187 20.9727 15.2838C20.9727 14.9517 20.8497 14.8197 19.8659 14.0966C19.3946 13.7502 18.9422 13.3686 18.8607 13.2485C18.5821 12.8389 18.5759 12.2013 18.8463 11.7853C18.9087 11.6893 19.3608 11.3134 19.8508 10.9498C20.8018 10.2445 20.9446 10.1064 20.9955 9.84315C21.0533 9.54329 20.545 8.29904 20.0157 7.44484C19.746 7.0098 19.2026 6.30772 19.0033 6.13699C18.7192 5.89355 18.4466 5.94073 17.3439 6.42403C16.7957 6.66428 16.2515 6.87648 16.1347 6.89562C15.6585 6.97351 15.0334 6.62699 14.8155 6.1643C14.7551 6.0359 14.6533 5.44727 14.5802 4.80302C14.4476 3.63407 14.4157 3.51105 14.1925 3.30749C13.8906 3.03221 11.6483 2.89909 10.5124 3.08904ZM12.8656 9.29899C14.2541 9.66425 15.3006 11.04 15.3006 12.5001C15.3006 14.2938 13.7829 15.8231 12.0028 15.8231C10.5537 15.8231 9.18844 14.7686 8.82595 13.3695C8.27634 11.2478 9.84252 9.18481 12.0028 9.18481C12.2386 9.18481 12.6269 9.23618 12.8656 9.29899Z" fill="white"/>
</svg>
