<svg width="24" height="24" viewBox="0 0 24 24" fill="none" xmlns="http://www.w3.org/2000/svg">
<path fill-rule="evenodd" clip-rule="evenodd" d="M3.49224 5.36434C3.67986 5.56469 5.50397 7.43151 7.54591 9.51289C10.0246 12.0394 11.3464 13.3408 11.5234 13.4286C11.8593 13.5954 12.1524 13.5954 12.4883 13.4286C12.6652 13.3408 13.9871 12.0394 16.4658 9.51289C18.5077 7.43151 20.3318 5.56469 20.5194 5.36434L20.8606 5H12.0058H3.15111L3.49224 5.36434ZM2 11.9237C2 15.1802 2.02107 17.8447 2.04686 17.8447C2.07265 17.8447 3.34743 16.4735 4.87969 14.7976L7.66567 11.7504L4.94047 8.96988C3.44165 7.44055 2.16687 6.14732 2.10764 6.09608C2.00572 6.00773 2 6.3175 2 11.9237ZM19.1629 8.87256L16.3452 11.7499L19.1448 14.8114C20.6846 16.4952 21.9597 17.8561 21.9784 17.8358C21.9971 17.8153 22.0052 15.1428 21.9965 11.8969L21.9806 5.99516L19.1629 8.87256ZM5.85318 15.9078L3.02594 19H12.006H20.986L18.1483 15.8968L15.3106 12.7937L14.524 13.6031C13.3115 14.851 12.9328 15.0719 12.0058 15.0719C11.0809 15.0719 10.6992 14.85 9.49829 13.6141C9.07152 13.1748 8.71292 12.8155 8.70142 12.8155C8.68987 12.8155 7.40812 14.207 5.85318 15.9078Z" fill="#ABAFE5"/>
</svg>
