<svg width="24" height="24" viewBox="0 0 24 24" fill="none" xmlns="http://www.w3.org/2000/svg">
<path fill-rule="evenodd" clip-rule="evenodd" d="M10.8666 5.05195C9.32726 5.32378 8.12376 5.95242 7.01496 7.06385C6.01249 8.06872 5.39654 9.21017 5.09486 10.6222C4.96838 11.2142 4.96838 12.7764 5.09486 13.3684C5.7293 16.3381 8.07559 18.5405 11.0547 18.9626C11.5835 19.0375 12.9237 18.9938 13.4169 18.8855C16.3556 18.2404 18.5434 15.893 18.9626 12.9352C19.0375 12.4065 18.9938 11.0663 18.8855 10.5732C18.5823 9.19237 17.9574 8.05215 16.9487 7.03948C15.9477 6.03461 14.816 5.4145 13.4169 5.10433C12.9201 4.99418 11.3736 4.96245 10.8666 5.05195ZM12.3524 8.59634C12.6705 8.75665 12.7796 9.23445 12.5699 9.54835C12.1872 10.1211 11.3089 9.86848 11.3082 9.18536C11.3079 8.85723 11.4604 8.64975 11.7858 8.53573C11.9806 8.46742 12.1278 8.48321 12.3524 8.59634ZM12.2832 11.0455C12.5233 11.2136 12.5341 11.3136 12.5341 13.3607C12.5341 14.4101 12.5204 15.3374 12.5036 15.4213C12.4366 15.7563 12.083 15.9392 11.78 15.7955C11.451 15.6394 11.4494 15.627 11.4654 13.3159L11.4797 11.2516L11.6399 11.1085C11.8255 10.9427 12.0982 10.916 12.2832 11.0455Z" fill="#ABAFE5"/>
</svg>
