<svg width="14" height="14" viewBox="0 0 14 14" fill="none" xmlns="http://www.w3.org/2000/svg">
<path fill-rule="evenodd" clip-rule="evenodd" d="M8.13338 0.0519512C9.67274 0.323778 10.8762 0.952418 11.985 2.06385C12.9875 3.06872 13.6035 4.21017 13.9051 5.62222C14.0316 6.21423 14.0316 7.77644 13.9051 8.36844C13.2707 11.3381 10.9244 13.5405 7.9453 13.9626C7.41655 14.0375 6.07626 13.9938 5.58307 13.8855C2.64437 13.2404 0.45664 10.893 0.0374079 7.93518C-0.0375319 7.40648 0.0062151 6.06632 0.114506 5.57318C0.41765 4.19237 1.04258 3.05215 2.05132 2.03948C3.05227 1.03461 4.18402 0.414502 5.58307 0.104326C6.07994 -0.00581751 7.62636 -0.0375462 8.13338 0.0519512ZM6.64763 3.59634C6.32952 3.75665 6.22035 4.23445 6.43007 4.54835C6.81276 5.12113 7.69115 4.86848 7.69178 4.18536C7.69213 3.85723 7.5396 3.64975 7.21424 3.53573C7.01938 3.46742 6.87215 3.48321 6.64763 3.59634ZM6.71683 6.04548C6.47671 6.21364 6.46587 6.31363 6.46587 8.36074C6.46587 9.41014 6.4796 10.3374 6.49637 10.4213C6.56342 10.7563 6.91703 10.9392 7.21998 10.7955C7.54902 10.6394 7.55063 10.627 7.5346 8.31592L7.52033 6.2516L7.36015 6.10855C7.17446 5.9427 6.90178 5.91597 6.71683 6.04548Z" fill="#ABAFE5"/>
</svg>
