<svg width="28" height="32" viewBox="0 0 28 32" fill="none" xmlns="http://www.w3.org/2000/svg">
<path d="M2.10051 6.1005C3.66275 4.53826 5.57255 3.36793 7.67377 2.68521C9.77498 2.00248 12.0079 1.82675 14.1901 2.17236C16.3722 2.51798 18.4416 3.37514 20.229 4.67376C22.0164 5.97238 23.4711 7.67559 24.4741 9.64414C25.4771 11.6127 26 13.7907 26 16C26 18.2093 25.4771 20.3873 24.4741 22.3559C23.4711 24.3244 22.0164 26.0276 20.229 27.3262C18.4416 28.6249 16.3722 29.482 14.1901 29.8276" stroke="#30A5D1" stroke-width="4" stroke-linecap="round" stroke-linejoin="round"/>
<path d="M2.10051 6.1005C3.66275 4.53826 5.57255 3.36793 7.67377 2.68521C9.77498 2.00248 12.0079 1.82675 14.1901 2.17236C16.3722 2.51798 18.4416 3.37514 20.229 4.67376C22.0164 5.97238 23.4711 7.67559 24.4741 9.64414C25.4771 11.6127 26 13.7907 26 16C26 18.2093 25.4771 20.3873 24.4741 22.3559C23.4711 24.3244 22.0164 26.0276 20.229 27.3262C18.4416 28.6249 16.3722 29.482 14.1901 29.8276" stroke="black" stroke-opacity="0.2" stroke-width="4" stroke-linecap="round" stroke-linejoin="round"/>
</svg>
