<svg width="24" height="25" viewBox="0 0 24 25" fill="none" xmlns="http://www.w3.org/2000/svg">
<path fill-rule="evenodd" clip-rule="evenodd" d="M4.04854 4.03705C3.64608 4.14256 3.32103 4.42186 3.10858 4.84484C3.00437 5.05235 3 5.36037 3 12.5052V19.9493L3.12571 20.1964C3.27285 20.4856 3.50103 20.7232 3.78641 20.8844C3.9808 20.9942 4.22371 20.9995 9 20.9995C14.6039 20.9995 14.1929 21.0318 14.6413 20.5562C15.0291 20.145 15.0291 20.1442 15.0291 16.5097V13.2465H16.8779H18.7266L17.8827 14.1431L17.0388 15.0397V15.3413C17.0388 15.6861 17.1554 15.8677 17.4662 16.0071C17.6134 16.0733 17.7052 16.0787 17.845 16.0298C17.9656 15.9876 18.544 15.4192 19.5148 14.3891L21 12.8132V12.5052V12.1972L19.5146 10.6198C17.9766 8.98668 17.857 8.88988 17.5065 8.99366C17.2001 9.08435 17.0388 9.31552 17.0388 9.66407V9.97073L17.8827 10.8673L18.7266 11.7639H16.8779H15.0291V8.50068C15.0291 4.86616 15.0291 4.86535 14.6413 4.45423C14.194 3.97978 14.5871 4.01203 9.11651 4.00103C6.42524 3.99566 4.14466 4.01184 4.04854 4.03705ZM15.0291 12.5052V13.1847H12.2272H9.42524L9.22718 12.9747C9.06484 12.8025 9.02913 12.7179 9.02913 12.5052C9.02913 12.2925 9.06484 12.2079 9.22718 12.0357L9.42524 11.8256H12.2272H15.0291V12.5052Z" fill="#ABAFE5"/>
</svg>
