<svg width="115" height="133" viewBox="0 0 115 133" fill="none" xmlns="http://www.w3.org/2000/svg">
<g opacity="0.15">
<path d="M124.559 66.9326C124.559 104.714 93.9543 135.428 56.3081 135.428H17.5399L6.35829 203.186C6.12614 204.7 4.81064 205.826 3.3017 205.826C2.4505 205.826 1.67668 205.477 1.09632 204.894C0.515958 204.312 0.167755 203.535 0.167755 202.681V114.538H56.2694C82.4244 114.538 103.704 93.1814 103.704 66.9326C103.704 40.6838 82.4244 19.3275 56.2694 19.3275H0.167755V-1.56287H56.2694C93.9156 -1.56287 124.559 29.1514 124.559 66.9326Z" fill="url(#paint0_linear_210_3508)"/>
<path d="M66.8602 77H2.18467C1 77 0.0456835 75.868 0.0456835 74.4628V58.5372C0.0456835 57.132 1 56 2.18467 56H66.8602C68.0449 56 68.9992 57.132 68.9992 58.5372V74.4628C69.0321 75.868 68.0449 77 66.8602 77Z" fill="url(#paint1_linear_210_3508)"/>
</g>
<defs>
<linearGradient id="paint0_linear_210_3508" x1="-142.605" y1="193.552" x2="285.613" y2="-74.9251" gradientUnits="userSpaceOnUse">
<stop stop-color="#962FF2"/>
<stop offset="0.8713" stop-color="#00E0E5"/>
</linearGradient>
<linearGradient id="paint1_linear_210_3508" x1="-132.683" y1="167.029" x2="280.616" y2="-52.2112" gradientUnits="userSpaceOnUse">
<stop stop-color="#962FF2"/>
<stop offset="0.8713" stop-color="#00E0E5"/>
</linearGradient>
</defs>
</svg>
