<svg width="124" height="133" viewBox="0 0 124 133" fill="none" xmlns="http://www.w3.org/2000/svg">
<g opacity="0.15">
<path d="M124.352 -2.89363L124.352 85.3272H68.2505C42.0956 85.3272 20.8156 106.683 20.8156 132.932C20.8156 159.181 42.0956 180.537 68.2505 180.537L124.352 180.537V201.428L68.2505 201.428C30.6044 201.428 0 170.713 0 132.932C0 95.1511 30.6044 64.4369 68.2505 64.4369H106.98L118.162 -3.39842C118.394 -4.91277 119.709 -6 121.218 -6C122.069 -6 122.843 -5.65053 123.424 -5.06809C124.004 -4.52447 124.352 -3.74788 124.352 -2.89363Z" fill="url(#paint0_linear_210_3517)"/>
<path d="M211.02 143.339L58.5005 143.339C57.1077 143.339 55.9856 142.213 55.9856 140.815V124.973C55.9856 123.575 57.1077 122.449 58.5005 122.449L211.02 122.449C212.412 122.449 213.534 123.575 213.534 124.973V140.815C213.573 142.213 212.412 143.339 211.02 143.339Z" fill="url(#paint1_linear_210_3517)"/>
</g>
<defs>
<linearGradient id="paint0_linear_210_3517" x1="-36.2764" y1="197.871" x2="391.942" y2="-70.6061" gradientUnits="userSpaceOnUse">
<stop stop-color="#962FF2"/>
<stop offset="0.8713" stop-color="#00E0E5"/>
</linearGradient>
<linearGradient id="paint1_linear_210_3517" x1="-23.5925" y1="232.898" x2="423.382" y2="-47.3384" gradientUnits="userSpaceOnUse">
<stop stop-color="#962FF2"/>
<stop offset="0.8713" stop-color="#00E0E5"/>
</linearGradient>
</defs>
</svg>
