<svg width="106" height="133" viewBox="0 0 106 133" fill="none" xmlns="http://www.w3.org/2000/svg">
<g opacity="0.15">
<path d="M124.352 -68.8936V19.3272H68.2505C42.0956 19.3272 20.8156 40.6835 20.8156 66.9323C20.8156 93.1811 42.0956 114.537 68.2505 114.537H124.352V135.428H68.2505C30.6044 135.428 0 104.713 0 66.9323C0 29.1511 30.6044 -1.56313 68.2505 -1.56313H106.98L118.162 -69.3984C118.394 -70.9128 119.709 -72 121.218 -72C122.069 -72 122.843 -71.6505 123.424 -71.0681C124.004 -70.5245 124.352 -69.7479 124.352 -68.8936Z" fill="url(#paint0_linear_210_3503)"/>
<path d="M211.02 77.3391H58.5005C57.1077 77.3391 55.9856 76.213 55.9856 74.8152V58.9727C55.9856 57.5748 57.1077 56.4487 58.5005 56.4487H211.02C212.412 56.4487 213.534 57.5748 213.534 58.9727V74.8152C213.573 76.213 212.412 77.3391 211.02 77.3391Z" fill="url(#paint1_linear_210_3503)"/>
</g>
<defs>
<linearGradient id="paint0_linear_210_3503" x1="-36.2764" y1="131.871" x2="391.942" y2="-136.606" gradientUnits="userSpaceOnUse">
<stop stop-color="#962FF2"/>
<stop offset="0.8713" stop-color="#00E0E5"/>
</linearGradient>
<linearGradient id="paint1_linear_210_3503" x1="-23.5925" y1="166.898" x2="423.382" y2="-113.338" gradientUnits="userSpaceOnUse">
<stop stop-color="#962FF2"/>
<stop offset="0.8713" stop-color="#00E0E5"/>
</linearGradient>
</defs>
</svg>
