<svg width="24" height="25" viewBox="0 0 24 25" fill="none" xmlns="http://www.w3.org/2000/svg">
<path fill-rule="evenodd" clip-rule="evenodd" d="M18.8668 7.58568C18.7082 7.64437 18.4633 7.81853 18.2824 8.0012C17.7533 8.53546 17.7663 8.43028 17.7663 12.1787V15.4352H17.1223C16.409 15.4352 16.1893 15.5056 16.0689 15.7726C15.9728 15.9856 15.9768 16.1448 16.0834 16.3477C16.2171 16.6019 18.994 19.3661 19.1897 19.4396C19.4419 19.5344 19.6347 19.5191 19.898 19.3835C20.1573 19.2499 22.8946 16.4353 22.9727 16.2219C23.0482 16.016 22.9636 15.7614 22.7631 15.591C22.5915 15.4453 22.5369 15.4352 21.9149 15.4352H21.2501L21.2328 12.0907V9.05296L21.0352 8.4174C20.8362 8.05471 20.6257 7.85127 20.2458 7.6546C19.9103 7.48087 19.2404 7.44739 18.8668 7.58568Z" fill="#ABAFE5"/>
<rect x="1" y="3.5" width="15" height="4" rx="2" fill="#ABAFE5"/>
<rect x="1" y="10.5" width="11" height="4" rx="2" fill="#ABAFE5"/>
<rect x="1" y="17.5" width="9" height="4" rx="2" fill="#ABAFE5"/>
</svg>
