<svg width="24" height="24" viewBox="0 0 24 24" fill="none" xmlns="http://www.w3.org/2000/svg">
<path fill-rule="evenodd" clip-rule="evenodd" d="M3.52425 3.69842L2.81107 4.39684L3.93835 5.50229L5.06562 6.60773L4.44782 7.17327C3.25914 8.26133 2.1884 9.68026 1.41034 11.1984L1 11.9991L1.31008 12.6301C1.68993 13.4031 2.22189 14.269 2.77591 15.016C3.36051 15.8043 4.93599 17.3296 5.73473 17.8807C6.88233 18.6725 8.29428 19.2854 9.62477 19.5692C11.9838 20.0725 14.3987 19.8157 16.5473 18.8329L17.2303 18.5206L18.4976 19.7603L19.7649 21L20.477 20.3003L21.1891 19.6005L12.7132 11.3003L4.23736 3L3.52425 3.69842ZM11.1302 4.20062C10.5632 4.25796 9.93012 4.36841 9.3346 4.51404L8.7225 4.66369L9.99096 5.9072L11.2594 7.15077L11.9606 7.14873C12.7908 7.14627 13.4176 7.27554 14.1112 7.59216C15.1503 8.06648 15.953 8.83976 16.4573 9.85228C16.816 10.5724 16.9573 11.1917 16.9566 12.0407L16.9561 12.7292L18.6593 14.3929L20.3625 16.0565L20.5389 15.852C21.3383 14.9253 22.0496 13.8659 22.6276 12.7411L23 12.0164L22.7657 11.513C22.4485 10.8311 21.7157 9.63663 21.1825 8.93187C20.6481 8.22574 19.1721 6.76359 18.5177 6.29227C17.0955 5.26789 15.5732 4.62347 13.8781 4.32832C13.2831 4.22476 11.645 4.1486 11.1302 4.20062ZM9.16389 11.0454C9.08195 11.2579 9.04498 11.5617 9.0438 12.034C9.04213 12.6614 9.05974 12.7525 9.2647 13.1766C9.93833 14.5704 11.5524 15.2639 12.9751 14.7709L13.2884 14.6624L14.0033 15.3595C14.8163 16.1522 14.8143 16.0878 14.0354 16.4408C13.4204 16.7195 12.7711 16.8507 12.0017 16.8518C9.44995 16.8554 7.38108 15.0636 7.06585 12.5769C6.94241 11.6029 7.1748 10.4345 7.64988 9.64051L7.83959 9.32355L8.56092 10.0311L9.28224 10.7386L9.16389 11.0454Z" fill="#ABAFE5"/>
</svg>
