<svg width="24" height="24" viewBox="0 0 24 24" fill="none" xmlns="http://www.w3.org/2000/svg">
<path fill-rule="evenodd" clip-rule="evenodd" d="M10.8459 4.0362C9.14493 4.23305 7.48394 4.82414 6.12086 5.71772C4.18793 6.98476 2.45041 9.00631 1.35146 11.2666L1 11.9896L1.31107 12.6374C1.69192 13.4303 2.22367 14.3161 2.77826 15.0812C3.36301 15.8879 4.9389 17.4491 5.73785 18.0131C7.81562 19.48 10.4173 20.187 12.8931 19.9575C15.7865 19.6893 17.9876 18.6048 20.0853 16.4141C21.1536 15.2983 22.1736 13.8114 22.7695 12.5011L23 11.9943L22.7695 11.4875C22.4556 10.7972 21.7207 9.57236 21.1896 8.85427C20.6552 8.13157 19.1787 6.6351 18.5242 6.15272C17.1007 5.1036 15.581 4.44343 13.9037 4.14554C13.1692 4.01506 11.5337 3.95658 10.8459 4.0362ZM13.1891 7.15474C14.1927 7.37685 15.3072 8.09877 15.9413 8.93737C16.6224 9.83807 16.9626 10.8565 16.9626 11.9943C16.9626 13.9366 15.9215 15.6194 14.1988 16.4614C13.4782 16.8136 12.8287 16.9618 12.0052 16.9618C11.1818 16.9618 10.5323 16.8136 9.81164 16.4614C8.77746 15.9559 7.98763 15.1514 7.50316 14.1099C7.18394 13.4236 7.04467 12.781 7.04467 11.9943C7.04467 10.0566 8.09536 8.36128 9.81164 7.52952C10.9187 6.99306 11.9446 6.87919 13.1891 7.15474ZM11.2822 9.06702C10.4761 9.2698 9.6551 9.97233 9.26854 10.79C9.06179 11.2274 9.04563 11.3147 9.04563 11.9943C9.04563 12.6739 9.06179 12.7612 9.26854 13.1986C10.199 15.1668 12.6944 15.6032 14.157 14.0536C15.5884 12.5371 15.1218 10.1526 13.2191 9.26052C12.8405 9.08293 12.6555 9.04141 12.1566 9.02222C11.8244 9.00945 11.4309 9.02962 11.2822 9.06702Z" fill="#ABAFE5"/>
</svg>
