<svg width="15" height="20" viewBox="0 0 15 20" fill="none" xmlns="http://www.w3.org/2000/svg">
<path d="M7.49975 9.78131C9.69242 9.78131 11.4701 7.59171 11.4701 4.89069C11.4701 2.1896 10.8865 0 7.49975 0C4.11305 0 3.5293 2.1896 3.5293 4.89069C3.5293 7.59171 5.30697 9.78131 7.49975 9.78131Z" fill="#ABAFE5"/>
<path d="M0.000789404 17.2487C0.00010576 17.084 -0.000577884 17.2023 0.000789404 17.2487V17.2487Z" fill="#ABAFE5"/>
<path d="M14.9985 17.3774C15.0007 17.3323 14.9993 17.0646 14.9985 17.3774V17.3774Z" fill="#ABAFE5"/>
<path d="M14.9902 17.0512C14.9166 12.3459 14.3107 11.0052 9.67377 10.1565C9.67377 10.1565 9.02105 11 7.4997 11C5.97834 11 5.32551 10.1565 5.32551 10.1565C0.73919 10.9959 0.09639 12.3168 0.0118703 16.8983C0.00493963 17.2724 0.0017279 17.2921 0.000488281 17.2487C0.000770014 17.33 0.00110797 17.4806 0.00110797 17.743C0.00110797 17.743 1.10505 19.9999 7.4997 19.9999C13.8942 19.9999 14.9983 17.743 14.9983 17.743C14.9983 17.5744 14.9984 17.4571 14.9986 17.3774C14.9973 17.4042 14.9949 17.3522 14.9902 17.0512Z" fill="#ABAFE5"/>
</svg>
