<svg width="32" height="32" viewBox="0 0 32 32" fill="none" xmlns="http://www.w3.org/2000/svg">
<path d="M18.6219 22.8658C17.2555 23.3217 15.7483 23.3216 14.378 22.8656C13.9941 22.7378 13.5795 22.9454 13.4518 23.3292C13.3241 23.713 13.5316 24.1277 13.9155 24.2555C14.7499 24.5332 15.626 24.672 16.5017 24.672C17.3775 24.672 18.2531 24.5331 19.0856 24.2553C19.4693 24.1273 19.6766 23.7124 19.5485 23.3287C19.4205 22.945 19.0057 22.7379 18.6219 22.8658Z" fill="#30A5D1"/>
<path d="M24.5859 7.97651C24.2722 5.65124 22.3402 3.8159 19.9473 3.8159H19.1054V3.76172C19.1054 3.34105 18.7754 3 18.3684 3H13.6316C13.2246 3 12.8946 3.34105 12.8946 3.76172V3.81585H12.0527C9.67986 3.81585 7.74521 5.62559 7.41619 7.97595C6.03457 8.3009 5 9.57983 5 11.1046V17.6318C5 19.7192 6.64524 20.5699 7.39256 20.7535C7.73003 25.4527 11.5481 29 16 29C20.54 29 24.2725 25.3587 24.6071 20.7537C26.5443 20.2784 27 18.462 27 17.6318V11.1047C27 9.58064 25.9665 8.30222 24.5859 7.97651ZM19.1054 5.33929H19.9473C22.0327 5.33929 22.8942 7.10145 23.0734 7.89531H19.1054V5.33929ZM14.3687 4.52344H17.6313V7.89531H14.3687V4.52344ZM12.0527 5.33929H12.8946V7.89531H8.92969C9.40774 5.82567 11.222 5.33929 12.0527 5.33929ZM16 27.4766C12.3622 27.4766 9.25257 24.6284 8.87992 20.8411H12.5145C13.419 20.8411 14.304 20.4624 14.9425 19.8019C14.9463 19.798 14.95 19.7941 14.9537 19.7901C15.231 19.5097 15.6114 19.3493 16 19.3493C16.3887 19.3493 16.7691 19.5098 17.0463 19.7901C17.05 19.7941 17.0537 19.798 17.0576 19.8019C17.6961 20.4624 18.581 20.8411 19.4855 20.8411H23.1198C22.7497 24.5634 19.6979 27.4766 16 27.4766ZM25.526 17.6318C25.526 18.5745 24.7825 19.3177 23.8946 19.3177H19.4855C18.9749 19.3177 18.4754 19.1064 18.1123 18.7374C18.1083 18.733 18.1043 18.7288 18.1002 18.7245C17.5476 18.1534 16.7822 17.8259 16 17.8259C15.218 17.8259 14.4525 18.1534 13.9 18.7245C13.8959 18.7287 13.8918 18.733 13.8878 18.7373C13.5246 19.1064 13.0251 19.3177 12.5145 19.3177H8.10538C7.22033 19.3177 6.47405 18.5777 6.47405 17.6318V11.1047C6.47405 10.1751 7.20589 9.4188 8.10538 9.4188H23.8946C24.7941 9.4188 25.5259 10.1751 25.5259 11.1047V17.6318H25.526Z" fill="#30A5D1"/>
</svg>
